#N canvas 506 127 681 706 10;
#N canvas 265 116 631 573 \$0-adsr 0;
#X obj 167 551 vline~;
#X obj 167 593 outlet~;
#X obj 155 202 inlet;
#X msg 430 468 50;
#X msg 527 421 set \$1;
#X msg 430 490 0 \$1;
#X msg 136 320 set \$1;
#X msg 160 371 50;
#X obj 167 406 pack f f f;
#X msg 167 428 1 \$1 \, \$3 \$2 \$1;
#X obj 155 254 route attack decay sustain release noteon noteoff;
#X obj 289 613 snapshot~;
#X floatatom 289 636 5 0 0 0 - - -, f 5;
#X obj 299 586 metro 100;
#X obj 289 552 tgl 15 0 empty empty empty 17 7 0 10 -262144 -1 -1 0
1;
#X obj 473 559 print off-\$0;
#X obj 80 453 print on-\$0;
#X connect 0 0 1 0;
#X connect 0 0 11 0;
#X connect 2 0 10 0;
#X connect 3 0 5 0;
#X connect 4 0 3 0;
#X connect 5 0 0 0;
#X connect 5 0 15 0;
#X connect 6 0 7 0;
#X connect 7 0 8 0;
#X connect 8 0 9 0;
#X connect 9 0 0 0;
#X connect 9 0 16 0;
#X connect 10 0 6 0;
#X connect 10 1 8 1;
#X connect 10 2 8 2;
#X connect 10 3 4 0;
#X connect 10 4 7 0;
#X connect 10 5 3 0;
#X connect 11 0 12 0;
#X connect 13 0 11 0;
#X connect 14 0 13 0;
#X restore 413 286 pd \$0-adsr;
#X obj 196 385 osc~ 440;
#X obj 509 553 *~;
#X obj 522 64 inlet~;
#X text 519 35 LFO;
#X obj 509 593 outlet~;
#X obj 252 447 *~;
#X obj 267 307 / 127;
#X msg 267 329 \$1 50;
#X obj 267 351 line~;
#X obj 398 498 *~;
#X obj 196 162 stripnote;
#X obj 196 62 inlet;
#X text 185 447 Velocity;
#X text 302 498 Amp Envelope;
#X text 474 553 LFO;
#X obj 413 191 sel 0;
#X msg 297 230 noteon;
#X msg 413 213 noteoff;
#X obj 196 97 route midinote;
#X text 187 36 Messages;
#X obj 196 214 mtof;
#X floatatom 93 208 5 0 0 0 - - -, f 5;
#X obj 93 229 bng 15 250 50 0 empty empty empty 17 7 0 10 -262144 -1
-1;
#X obj 423 235 bng 15 250 50 0 empty empty empty 17 7 0 10 -262144
-1 -1;
#X obj 196 120 unpack f f;
#X obj 77 342 phasor~ 440;
#X obj 77 386 -~ 1;
#X obj 77 364 *~ 1.9;
#X connect 0 0 10 1;
#X connect 2 0 5 0;
#X connect 3 0 2 1;
#X connect 6 0 10 0;
#X connect 7 0 8 0;
#X connect 8 0 9 0;
#X connect 9 0 6 1;
#X connect 10 0 2 0;
#X connect 11 0 17 0;
#X connect 11 0 21 0;
#X connect 11 0 22 0;
#X connect 11 1 7 0;
#X connect 12 0 19 0;
#X connect 16 0 18 0;
#X connect 17 0 0 0;
#X connect 18 0 0 0;
#X connect 18 0 24 0;
#X connect 19 0 25 0;
#X connect 19 1 0 0;
#X connect 21 0 1 0;
#X connect 21 0 26 0;
#X connect 22 0 23 0;
#X connect 25 0 11 0;
#X connect 25 1 11 1;
#X connect 25 1 16 0;
#X connect 26 0 28 0;
#X connect 27 0 6 0;
#X connect 28 0 27 0;
