#N canvas 157 49 816 656 10;
#N canvas 574 340 450 300 \$0-dsp-onoff 0;
#X obj 109 108 tgl 15 0 empty empty empty 17 7 0 10 -262144 -1 -1 0
127;
#X msg 109 130 \; pd dsp \$1;
#X text 128 108 DSP on;
#X obj 261 199 dac~;
#X obj 270 114 *~ 0.9;
#X obj 273 33 inlet~;
#X obj 106 75 ctlin 9;
#X obj 322 113 *~ 0.9;
#X obj 325 32 inlet~;
#X connect 0 0 1 0;
#X connect 4 0 3 0;
#X connect 5 0 4 0;
#X connect 6 0 0 0;
#X connect 7 0 3 1;
#X connect 8 0 7 0;
#X coords 0 -1 1 1 85 60 2 100 100;
#X restore 159 622 pd \$0-dsp-onoff;
#N canvas 1193 84 450 357 \$0-lfo 0;
#X obj 96 254 *~;
#X obj 96 159 osc~ 2;
#X obj 210 129 hsl 128 15 0 20 0 0 empty empty empty -2 -8 0 10 -262144
-1 -1 700 1;
#X obj 210 153 hsl 128 15 0 1 0 0 empty empty empty -2 -8 0 10 -262144
-1 -1 8100 1;
#X obj 96 296 outlet~;
#X obj 55 56 ctlin 7 1;
#X obj 55 78 / 127;
#X obj 125 38 / 127;
#X obj 125 16 ctlin 6 1;
#X text 210 106 LFO;
#X text 350 128 Freq;
#X text 350 152 Amp;
#X obj 125 60 * 20;
#X msg 153 189 \$1 50;
#X obj 153 211 line~;
#X connect 0 0 4 0;
#X connect 1 0 0 0;
#X connect 2 0 1 0;
#X connect 3 0 13 0;
#X connect 5 0 6 0;
#X connect 6 0 3 0;
#X connect 7 0 12 0;
#X connect 8 0 7 0;
#X connect 12 0 2 0;
#X connect 13 0 14 0;
#X connect 14 0 0 1;
#X coords 0 0 200 1 190 80 2 200 100;
#X restore 446 212 pd \$0-lfo;
#N canvas 444 199 453 454 \$0-adsr 0;
#X obj 68 204 moonlib/mknob 25 100 50 5050 0 0 empty empty empty -2
-6 0 8 -262144 -1 -1 78 1;
#X obj 108 204 moonlib/mknob 25 100 50 5050 0 0 empty empty empty -2
-6 0 8 -262144 -1 -1 1403 1;
#X obj 148 204 moonlib/mknob 25 100 0 1 0 0 empty empty empty -2 -6
0 8 -262144 -1 -1 0 1;
#X obj 188 204 moonlib/mknob 25 100 50 5050 0 0 empty empty empty -2
-6 0 8 -262144 -1 -1 312 1;
#X obj 50 25 ctlin 1 1;
#X obj 50 47 / 127;
#X obj 120 47 / 127;
#X obj 170 77 / 127;
#X obj 240 47 / 127;
#X obj 120 25 ctlin 2 1;
#X obj 170 55 ctlin 3 1;
#X obj 240 25 ctlin 4 1;
#X obj 240 69 * 5000;
#X obj 50 69 * 5000;
#X obj 120 69 * 5000;
#X text 74 180 A;
#X text 115 180 D;
#X text 155 180 S;
#X text 194 180 R;
#X text 99 161 Amp Envelope;
#X msg 68 351 attack \$1;
#X msg 108 311 decay \$1;
#X msg 148 281 sustain \$1;
#X msg 188 251 release \$1;
#X obj 295 407 outlet;
#X obj 50 91 + 50;
#X obj 120 91 + 50;
#X obj 240 91 + 50;
#X connect 0 0 20 0;
#X connect 1 0 21 0;
#X connect 2 0 22 0;
#X connect 3 0 23 0;
#X connect 4 0 5 0;
#X connect 5 0 13 0;
#X connect 6 0 14 0;
#X connect 7 0 2 0;
#X connect 8 0 12 0;
#X connect 9 0 6 0;
#X connect 10 0 7 0;
#X connect 11 0 8 0;
#X connect 12 0 27 0;
#X connect 13 0 25 0;
#X connect 14 0 26 0;
#X connect 20 0 24 0;
#X connect 21 0 24 0;
#X connect 22 0 24 0;
#X connect 23 0 24 0;
#X connect 25 0 0 0;
#X connect 26 0 1 0;
#X connect 27 0 3 0;
#X coords 0 0 180 90 180 90 2 50 150;
#X restore 254 211 pd \$0-adsr;
#N canvas 498 323 450 300 \$0-volume-in 0;
#X obj 123 12 ctlin 8 1;
#X obj 123 34 / 127;
#X obj 127 131 moonlib/mknob 25 100 0 1 0 0 empty empty empty -2 -6
0 8 -262144 -1 -1 9900 1;
#X text 121 104 Volume;
#X obj 128 261 outlet;
#X msg 128 194 volume \$1;
#X connect 0 0 1 0;
#X connect 1 0 2 0;
#X connect 2 0 5 0;
#X connect 5 0 4 0;
#X coords 0 -1 60 60 60 60 2 110 100;
#X restore 191 210 pd \$0-volume-in;
#X obj 168 513 lop~;
#N canvas 262 184 450 300 \$0-filter 0;
#X obj 114 131 mknob 25 100 20 18000 0 0 empty empty empty -2 -6 0
8 -262144 -1 -1 899 1;
#X text 105 103 Filter Freq;
#X obj 237 46 ctlin 5 1;
#X obj 237 68 / 127;
#X obj 237 90 * 10000;
#X obj 237 112 + 0;
#X obj 114 235 outlet;
#X connect 0 0 6 0;
#X connect 2 0 3 0;
#X connect 3 0 4 0;
#X connect 4 0 5 0;
#X connect 5 0 0 0;
#X coords 0 -1 1 1 50 60 2 100 100;
#X restore 381 392 pd \$0-filter;
#N canvas 510 171 504 501 \$0-engines 0;
#X obj 143 -112 route 1 2 3 4 5;
#X obj 143 -4 synth-engine;
#X obj 143 198 *~;
#X obj 160 28 synth-engine;
#X obj 177 66 synth-engine;
#X obj 195 98 synth-engine;
#X obj 215 128 synth-engine;
#X obj 143 240 /~ 5;
#X obj 148 -146 inlet;
#X obj 280 -137 inlet~;
#X text 277 -163 LFO;
#X obj 143 289 outlet~;
#X obj 28 -128 inlet;
#X obj 26 81 t a;
#X obj 28 -96 route volume;
#X obj 329 -46 t a;
#X connect 0 0 1 0;
#X connect 0 1 3 0;
#X connect 0 2 4 0;
#X connect 0 3 5 0;
#X connect 0 4 6 0;
#X connect 1 0 2 0;
#X connect 2 0 7 0;
#X connect 3 0 2 0;
#X connect 4 0 2 0;
#X connect 5 0 2 0;
#X connect 6 0 2 0;
#X connect 7 0 11 0;
#X connect 8 0 0 0;
#X connect 9 0 1 1;
#X connect 9 0 3 1;
#X connect 9 0 4 1;
#X connect 9 0 5 1;
#X connect 9 0 6 1;
#X connect 12 0 14 0;
#X connect 13 0 2 1;
#X connect 14 0 13 0;
#X connect 14 1 15 0;
#X connect 15 0 6 0;
#X connect 15 0 5 0;
#X connect 15 0 4 0;
#X connect 15 0 3 0;
#X connect 15 0 1 0;
#X restore 162 456 pd \$0-engines;
#X obj 170 570 freeverb~;
#N canvas 262 184 450 300 \$0-reverb 0;
#X obj 106 142 mknob 25 100 0 1 0 0 empty empty empty -2 -6 0 8 -262144
-1 -1 5145 1;
#X obj 136 142 mknob 25 100 0 1 0 0 empty empty empty -2 -6 0 8 -262144
-1 -1 3742 1;
#X obj 166 142 mknob 25 100 0 1 0 0 empty empty empty -2 -6 0 8 -262144
-1 -1 9198 1;
#X text 106 119 Wet;
#X text 133 119 Dry;
#X text 161 120 Room;
#X obj 77 35 / 127;
#X text 123 101 Reverb;
#X obj 77 13 ctlin 16;
#X obj 137 35 / 127;
#X obj 137 13 ctlin 17;
#X obj 197 35 / 127;
#X obj 197 13 ctlin 18;
#X obj 126 264 outlet;
#X msg 37 205 wet \$1;
#X msg 105 200 dry \$1;
#X msg 169 195 roomsize \$1;
#X connect 0 0 14 0;
#X connect 1 0 15 0;
#X connect 2 0 16 0;
#X connect 6 0 0 0;
#X connect 8 0 6 0;
#X connect 9 0 1 0;
#X connect 10 0 9 0;
#X connect 11 0 2 0;
#X connect 12 0 11 0;
#X connect 14 0 13 0;
#X connect 15 0 13 0;
#X connect 16 0 13 0;
#X coords 0 -1 1 1 95 70 2 100 100;
#X restore 515 356 pd \$0-reverb;
#N canvas 262 184 450 300 \$0-notein 0;
#X obj 180 -12 notein;
#X obj 180 61 pack d d d;
#X msg 180 83 \$1 midinote \$2 \$3;
#X obj 95 160 print poly;
#X obj 180 24 poly 5 0;
#X obj 298 73 print notein;
#X obj 298 51 pack f f f;
#X obj 201 161 outlet;
#X connect 0 0 4 0;
#X connect 0 0 6 0;
#X connect 0 1 4 1;
#X connect 0 1 6 1;
#X connect 0 2 6 2;
#X connect 1 0 2 0;
#X connect 2 0 3 0;
#X connect 2 0 7 0;
#X connect 4 0 1 0;
#X connect 4 1 1 1;
#X connect 4 2 1 2;
#X connect 6 0 5 0;
#X restore 37 243 pd \$0-notein;
#X connect 1 0 6 2;
#X connect 2 0 6 0;
#X connect 3 0 6 0;
#X connect 4 0 7 0;
#X connect 4 0 7 1;
#X connect 5 0 4 1;
#X connect 6 0 4 0;
#X connect 7 0 0 0;
#X connect 7 1 0 1;
#X connect 8 0 7 0;
#X connect 9 0 6 1;
